# xmcd
#
# Track frame offsets:
#	150
#	36240
#	52893
#	74445
#	102966
#	128952
#	157654
#	184534
#	202407
#	225811
#	256244
#	288748
#
# Disc length: 4266 seconds
#
# Revision: 0
# Processed by: cddbd v1.5.1PL0 Copyright (c) Steve Scherf et al.
# Submitted via: EasyCDDAExtractor 4.6.9.1
#
DISCID=a410a80c
DTITLE=Depeche Mode - Happy Birthday Fletch - CD1
DYEAR=2001
DGENRE=electronic
TTITLE0=Intro - Dead Of Night
TTITLE1=The Sweetest Condition
TTITLE2=Halo
TTITLE3=Walking In My Shoes
TTITLE4=Dream On
TTITLE5=When The Body Speaks
TTITLE6=Waiting For The Night
TTITLE7=The Bottom Line
TTITLE8=Breathe
TTITLE9=Freelove
TTITLE10=Enjoy The Silence
TTITLE11=I Feel You
EXTD=
EXTT0=
EXTT1=
EXTT2=
EXTT3=
EXTT4=
EXTT5=
EXTT6=
EXTT7=
EXTT8=
EXTT9=
EXTT10=
EXTT11=
PLAYORDER=
